<svg width="53" height="52" viewBox="0 0 53 52" fill="none" xmlns="http://www.w3.org/2000/svg">
<g clip-path="url(#clip0_657_2)">
<circle cx="26" cy="26" r="25.5" fill="#F9F9F9" stroke="#F9F9F9"/>
<path d="M22.5306 51.9594C22.1157 52.0591 21.7075 52.0037 21.3058 51.7932C20.9455 51.5726 20.7155 51.2549 20.6158 50.8401L19.2886 44.7743C18.7645 42.0479 18.3428 40.021 18.0236 38.6935C17.7342 37.4905 17.1185 35.7516 16.1765 33.4768C15.2029 31.2535 14.5615 29.4988 14.2522 28.2128C13.8731 26.6364 13.2109 24.8867 12.2657 22.9638C11.3205 21.0408 10.2709 19.2308 9.11666 17.5336C8.02391 15.9094 7.00493 14.1359 6.05973 12.2129C5.10456 10.2485 4.44239 8.49882 4.07324 6.96392C4.0034 6.67353 4.10948 6.38472 4.39146 6.09748C4.67345 5.81025 5.00111 5.62173 5.37447 5.53194C5.83079 5.42219 6.38111 5.7945 7.02542 6.64885C7.78263 7.60771 8.62385 9.00713 9.54909 10.8471C10.4743 12.6871 11.0233 13.7838 11.1961 14.1372L13.0377 18.2362L14.3184 20.8245C14.2832 20.1308 14.1774 19.2347 14.001 18.1362C13.4218 14.6332 13.0445 11.696 12.8691 9.32456C12.7804 7.67834 12.8229 6.39549 12.9967 5.47602C13.1921 4.46361 13.5801 3.88756 14.1609 3.74789C15.2809 3.4785 15.8909 3.55123 15.9906 3.96607C16.5593 6.33065 16.8996 9.93501 17.0114 14.7792C17.1233 19.6233 17.4685 23.2484 18.0472 25.6545L18.1622 26.68C18.2289 27.3222 18.2979 27.7006 18.3694 27.815L18.6088 28.8106C19.0378 30.5944 19.7585 33.3174 20.771 36.9795L22.8858 45.2256L23.3545 46.6269L23.8381 48.0904L24.2123 49.646C24.332 50.1438 24.2243 50.6085 23.8893 51.0402C23.5643 51.5133 23.1114 51.8197 22.5306 51.9594Z" fill="#464742"/>
<path d="M36.3024 11.8071C36.5176 11.0453 36.8588 10.2974 37.3259 9.56338C37.8044 8.7893 38.4121 8.1708 39.149 7.70788C39.906 7.25062 40.6567 7.08385 41.4011 7.20755C41.8693 7.77277 42.6146 8.19981 43.637 8.48867L45.0634 7.46281C44.964 6.74196 44.6229 6.0719 44.0401 5.45265C43.4573 4.83339 42.7951 4.41898 42.0533 4.20942C40.5697 3.7903 39.1707 3.91464 37.8563 4.58246C36.5532 5.21018 35.4642 6.11485 34.5891 7.29646C33.7198 8.45803 33.0755 9.78061 32.6564 11.2642C32.1353 13.1087 31.898 15.0983 31.9444 17.233C31.972 18.8211 32.0996 20.3618 32.3273 21.8549C32.5606 23.328 32.8994 25.1556 33.3437 27.3377L33.7316 29.2983C34.1471 31.429 34.3609 33.546 34.3729 35.6493C34.3848 37.7526 34.1444 39.6764 33.6517 41.4206C33.4421 42.1624 33.0983 42.9962 32.6203 43.9219C32.1624 44.8534 31.6113 45.7693 30.9673 46.6698C30.2805 47.6448 29.51 48.3797 28.6559 48.8744C27.8217 49.3748 27.0237 49.5174 26.2619 49.3022C25.9411 49.2116 25.4652 48.9039 24.834 48.3793C24.1772 47.869 23.6082 47.5459 23.127 47.4099C22.6859 47.2853 22.2998 47.3494 21.9686 47.6022C21.6431 47.835 21.4123 48.192 21.2764 48.6731C21.1291 49.1944 21.341 49.7089 21.912 50.2166C22.8016 51.0524 23.9882 51.6799 25.4718 52.099C26.815 52.4785 28.15 52.4659 29.4766 52.0613C30.8032 51.6568 31.9801 50.9393 33.0073 49.9089C33.9773 48.9273 34.8197 47.823 35.5343 46.5961C36.269 45.3749 36.8176 44.1227 37.1801 42.8396C37.7012 40.9951 38.0117 39.0911 38.1118 37.1277C38.2175 35.1442 38.1262 33.3216 37.838 31.6598C37.5816 30.1153 37.0262 27.1765 36.172 22.8436L35.9758 21.814C35.6649 20.2324 35.5283 18.5702 35.5661 16.8273C35.6095 15.0644 35.8549 13.391 36.3024 11.8071Z" fill="#464742"/>
</g>
<defs>
<clipPath id="clip0_657_2">
<rect width="53" height="52" fill="white"/>
</clipPath>
</defs>
</svg>
